<svg width="32" height="32" viewBox="0 0 32 32" fill="none" xmlns="http://www.w3.org/2000/svg">
  <rect width="32" height="32" rx="8" fill="url(#paint0_linear)"/>
  <path d="M6 22C6 21.4477 6.44772 21 7 21H9V19H23V21H25C25.5523 21 26 21.4477 26 22V24C26 24.5523 25.5523 25 25 25H7C6.44772 25 6 24.5523 6 24V22Z" fill="white"/>
  <path d="M10 19V11C10 9.89543 10.8954 9 12 9H18.5L22 12.5V19H10Z" fill="white" fill-opacity="0.4"/>
  <path d="M20 9L25 9C26.1046 9 27 9.89543 27 11V15L20 9Z" fill="white" fill-opacity="0.8"/>
  <defs>
    <linearGradient id="paint0_linear" x1="0" y1="0" x2="32" y2="32" gradientUnits="userSpaceOnUse">
      <stop stop-color="#FFB871"/>
      <stop offset="1" stop-color="#F47A2C"/>
    </linearGradient>
  </defs>
</svg>
